<?xml version="1.0" encoding="UTF-8"?>
<!-- Created with Inkscape (http://www.inkscape.org/) -->
<svg width="203.2mm" height="373.77mm" version="1.1" viewBox="0 0 203.2 373.77" xmlns="http://www.w3.org/2000/svg">
 <g transform="translate(-45.397 -39.316)" stroke-linecap="round" stroke-linejoin="round">
  <path transform="scale(.26458)" d="m525.02 1390.3c-9.6343-5.8743-12.512-12.707-19.14-45.452-3.376-16.677-7.1368-33.142-8.3573-36.588-1.2205-3.4461-2.7168-9.4178-3.3251-13.27-2.1897-13.869-4.1612-18.675-10.898-26.567-5.7235-6.7053-7.4043-10.282-10.258-21.831-2.5994-10.52-4.9812-15.977-9.9938-22.898-19.038-26.286-37.573-55.531-45.291-71.464-9.754-20.136-19.693-31.672-34.47-40.012-11.607-6.5504-16.402-16.215-18.114-36.508-1.836-21.761-6.5886-30.596-21.001-39.042-9.5225-5.5805-16.692-17.617-19.088-32.044-1.0734-6.4638-1.9592-7.5472-11.08-13.551-10.672-7.0255-16.391-14.087-19.781-24.422-3.6051-10.992-6.9618-41.228-6.9566-62.663 4e-3 -16.366-0.66134-22.607-3.3927-31.822l-3.3977-11.463 3.5941-11.955c6.0623-20.165 6.5191-24.471 3.8954-36.716-4.7966-22.386-5.6444-28.269-4.9692-34.478 0.37878-3.4828-0.31274-13.316-1.5367-21.85-1.8366-12.807-1.8813-17.249-0.2558-25.427 1.5875-7.9868 1.5846-13.456-0.015-28.196-2.9885-27.538-5.7844-38.749-13.515-54.195-6.7769-13.541-7.1114-14.879-9.21-36.84-2.4779-25.931-3.8003-31.78-10.284-45.484-4.1782-8.832-4.6305-11.323-4.6316-25.512-8.2e-4 -10.431-0.8572-18.237-2.544-23.187-5.8178-17.074 1.0084-38.971 19.317-61.964 5.2054-6.5372 14.068-19.183 19.694-28.102 5.6264-8.9189 13.452-20.08 17.39-24.803s9.3001-13.153 11.916-18.735c2.6157-5.5814 6.626-14.012 8.9118-18.735 2.2998-4.7518 4.1896-11.397 4.2314-14.88 0.0919-7.6493 14.94-33.299 28.441-49.131 8.0737-9.4675 17.536-26.186 17.538-30.989 5e-3 -7.8172 14.389-22.093 22.261-22.093 1.6443 0 6.6173 3.7654 11.051 8.3675 12.653 13.133 44.924 34.784 72.852 48.877 7.3225 3.6951 23.418 5.11 23.418 2.0587 0-3.153 10.137-7.7715 17.07-7.7773 6.2827-5e-3 7.6303 0.7288 14.587 7.9461 15.463 16.042 24.28 19.096 32.217 11.159l4.3078-4.3078 7.3252 18.749c8.3923 21.48 8.6562 24.704 3.8681 47.249l-3.4001 16.01 3.3292 21.459c1.8311 11.803 3.6647 30.944 4.0747 42.536 0.41003 11.592 1.8482 27.399 3.196 35.128 2.4046 13.788 4.0876 17.886 18.591 45.275 3.7053 6.9972 6.1255 14.017 6.7278 19.515 0.64858 5.9199 2.6634 11.412 6.4876 17.684l5.5469 9.0973-1.8835 21.347c-1.0359 11.741-1.8602 29.777-1.8317 40.081 0.0456 16.49 0.47249 19.477 3.5624 24.933 4.374 7.7227 10.829 11.746 14.769 9.2048 2.3317-1.5035 2.6846-3.8265 2.3407-15.408-0.40231-13.551-0.3826-13.63 3.1224-12.413 3.9603 1.3746 16.385 1.7909 19.83 0.66444 2.7408-0.89618 4.0094 6.2646 6.1802 34.884 1.6248 21.422 2.0885 22.795 16.681 49.407 5.0383 9.1882 5.4304 10.791 4.3907 17.954-2.7852 19.189 1.7689 38.971 14.749 64.069 13.384 25.878 28.039 36.689 49.738 36.689 15.109 0 42.486 14.97 49.611 27.129l4.1198 7.0299-0.48357 30.928c-0.26597 17.01 0.13442 35.558 0.88977 41.217 1.3702 10.264 1.3565 10.321-5.815 24.199-3.9536 7.6507-11.401 19.179-16.55 25.62-7.4203 9.2808-9.7162 13.49-11.071 20.296-2.7054 13.594-4.4699 18.111-9.5633 24.483-6.4708 8.0949-7.5693 11.294-10.087 29.38-4.7126 33.848-5.4173 40.579-4.592 43.867 0.47147 1.8785 0.88128 22.284 0.91068 45.346 0.0408 31.962-0.48896 43.971-2.2283 50.517-1.255 4.7227-7.5706 19.63-14.035 33.128l-11.753 24.542-12.938 8.5251c-16.632 10.96-19.936 14.544-28.078 30.463-7.4322 14.531-14.464 21.422-24.094 23.615-4.9328 1.1231-7.8246 0.6643-15.768-2.5017-6.2623-2.4961-11.137-3.5233-13.685-2.8837-3.8977 0.9783-10.154 7.3956-10.154 10.416 0 0.8502-1.8708 5.7144-4.1573 10.809-4.7082 10.491-9.2893 13.764-19.264 13.764-4.2768 0-9.9414 1.8311-17.058 5.5139-8.9182 4.6152-13.667 5.8875-29.133 7.8061-10.163 1.2608-18.505 2.2896-18.537 2.2864-0.0326 0-2.3145-1.3809-5.0708-3.0615z" fill="#7abb7a" stroke="#7abb7a" stroke-width="6.8032" style="paint-order:markers stroke fill"/>
  <path transform="scale(.26458)" d="m502.71 1553.1c-28.339-4.7638-58.23-20.742-79.622-42.563-4.7227-4.8172-10.558-9.7536-12.968-10.97-5.8904-2.9731-15.254-13.339-20.564-22.765-2.3879-4.2392-6.7988-11.401-9.802-15.915-6.5779-9.8875-12.698-26.042-14.443-38.123-0.704-4.8738-4.2182-15.387-7.8092-23.362-5.354-11.89-6.7764-17.113-7.9023-29.014-2.666-28.179-10.557-48.786-29.459-76.931-6.632-9.8748-14.448-22.521-17.37-28.102-3.948-7.5429-11.274-16.224-28.541-33.819-25.402-25.885-31.553-33.637-38.821-48.926-2.6533-5.5814-7.1532-13.813-9.9998-18.292-11.745-18.482-13.494-23.471-13.831-39.456-0.17222-8.1668-1.2433-22.928-2.3801-32.803-1.8444-16.021-1.761-20.461 0.77512-41.236l2.8421-23.282-3.542-2.8682c-5.9804-4.8426-13.672-3.7544-19.659 2.7812l-5.1745 5.6492-1.794-6.6623c-0.98669-3.6643-1.7304-15.384-1.6527-26.044 0.11454-15.707 0.69891-20.474 3.0823-25.146 5.0913-9.9797 6.7384-19.263 6.5571-36.957-0.16058-15.668 0.29651-18.584 5.2606-33.566 5.9637-17.999 10.184-42.47 10.184-59.053 0-5.8634-1.7047-20.797-3.7882-33.186-5.1773-30.785-5.2947-35.375-1.0757-42.041 3.2012-5.0578 3.3848-6.6836 2.4691-21.857-0.87908-14.566-0.51116-18.394 3.3013-34.347 3.0167-12.623 4.3303-22.381 4.4242-32.866 0.12705-14.186-0.13942-15.439-5.4772-25.76-29.03-56.13-27.456-52.542-25.986-59.246 0.84826-3.8702 0.66215-13.792-0.48941-26.093-1.022-10.916-1.3821-21.088-0.80033-22.605 0.58181-1.5162 1.7037-13.661 2.4932-26.989 1.6075-27.138 3.2578-34.946 8.587-40.625 2.1751-2.3178 5.0024-8.9757 6.9613-16.393 1.8142-6.8694 7.6043-21.175 12.867-31.79 8.9245-18.002 10.225-19.787 19.333-26.541 5.3706-3.9823 10.834-9.3481 12.142-11.924s2.651-10.107 2.9861-16.736c0.79027-15.633 6.7438-28.058 20.634-43.06 16.348-17.657 17.552-23.766 8.0664-40.903-6.067-10.961-16.797-26.541-18.278-26.541-0.62621 0-4.2128-3.2123-7.9702-7.1385-9.0094-9.414-15.217-12.436-31.947-15.556-7.6532-1.427-14.184-2.853-14.514-3.1688-1.3188-1.2643 12.831-22.695 25.187-38.147 7.2096-9.0161 17.192-22.898 22.184-30.849 10.548-16.801 13.335-17.187 13.335-1.8471 0 11.7 1.9729 16.736 7.0567 18.012 4.679 1.1744 11.678-4.2233 11.678-9.0062 0-4.1716 1.7668-3.6105 13.148 4.1752 5.6486 3.864 14.847 10.157 20.441 13.985 5.5941 3.8275 12.795 7.4028 16.003 7.9452 3.2073 0.54235 11.101 3.2005 17.541 5.9071 11.096 4.6633 12.813 4.9282 32.786 5.0576 15.248 0.0988 25.431 1.0678 36.824 3.5043 8.6613 1.8522 19.332 3.2869 23.713 3.1882 6.4378-0.14504 10.428 1.057 20.805 6.2673 9.3731 4.7064 14.772 6.4568 20.001 6.484 3.9391 0.0205 9.9722 0.7462 13.407 1.6127 7.0052 1.7673 29.212 4.1647 53.984 5.8279 15.194 1.0202 16.981 1.4834 22.351 5.7925 10.749 8.6249 14.904 10.143 27.775 10.146 13.606 3e-3 17.763 1.2251 25.944 7.6278 3.1747 2.4846 9.3559 5.6711 13.736 7.0811 14.15 4.5549 13.964 4.1911 13.388 26.15-0.34203 13.027 0.26205 22.912 1.8685 30.574 2.5896 12.352 2.9616 13.198 13.912 31.635 8.478 14.275 14.176 18.695 24.11 18.704 8.5203 8e-3 12.07-4.5703 10.488-13.526l-1.0573-5.9837 8.3781 7.8991c4.608 4.3445 11.766 10.581 15.908 13.859 11.433 9.0484 11.67 11.004 3.3907 27.905-10.713 21.869-11.739 32.992-4.7795 51.816 3.0788 8.3277 3.0048 21.783-0.21882 39.811-3.09 17.28-3.2784 74.481-0.29325 88.99 2.0973 10.193 12.122 36.589 22.452 59.119 6.5474 14.28 7.3062 17.024 6.445 23.307-0.53687 3.9169-3.08 10.85-5.6514 15.406-5.4904 9.7285-5.9691 18.079-2.3122 40.337 1.2698 7.728 2.3113 16.961 2.3146 20.518 9e-3 10.468 6.1092 37.853 10.252 46.029 7.125 14.06 28.867 27.864 43.933 27.892 15.546 0.0292 18.641-3.6484 20.816-24.733 1.4379-13.936 4.0613-18.947 9.9429-18.99 4.6926-0.0344 6.3321-1.4851 10.118-8.9531 2.1768-4.2938 4.4095-6.6352 6.3269-6.6352 8.1754 0 12.098-5.8028 13.593-20.109 0.53227-5.0924 1.5133-10.142 2.18-11.22 2.2825-3.6932 18.381 5.9695 31.189 18.72 6.535 6.5058 16.378 15.341 21.873 19.635 5.4949 4.2934 11.048 9.692 12.339 11.997 2.2239 3.9684 2.1337 4.3598-1.6999 7.3753-4.4915 3.533-7.5579 13.201-7.5687 23.862-5e-3 4.7211-1.8392 10.345-6.1572 18.877-10.008 19.775-10.053 32.863-0.16331 46.985 5.9599 8.5104 6.7368 13.273 4.86 29.79-1.2715 11.19-1.1106 15.89 0.83733 24.455 3.0894 13.583 2.5509 19.503-1.7118 18.823-14.902-2.3763-20.986-2.1212-25.464 1.0676-9.0732 6.4607-12.208 20.137-7.0883 30.926 5.3151 11.201 14.526 12.378 26.021 3.3265 6.618-5.2116 9.6239-4.7581 4.6516 0.7017-1.7564 1.9286-8.609 11.165-15.228 20.526-6.619 9.3605-16.054 21.69-20.968 27.399-4.9134 5.7087-14.243 18.455-20.733 28.325-10.96 16.668-12.107 19.218-16.113 35.831-2.3723 9.8372-4.8028 23.858-5.401 31.156-0.94716 11.555-1.8298 14.469-6.8285 22.546-6.5133 10.524-6.7689 12.39-3.1082 22.697 2.5914 7.2962 2.567 7.6049-1.5612 19.753-4.732 13.925-5.2745 23.661-1.858 33.344 2.1486 6.0898 2.1022 7.1374-0.57909 13.076-1.6031 3.5509-6.4917 11.195-10.864 16.987-10.046 13.31-10.348 13.933-12.666 26.158-2.2345 11.784-4.2816 14.516-14.916 19.906-4.662 2.3628-13.465 9.7588-21.857 18.363-7.728 7.9236-19.443 18.715-26.034 23.982-14.273 11.406-24.436 22.679-30.278 33.586-2.3524 4.3918-12.894 21.035-23.425 36.986-23.561 35.685-34.675 46.927-57.897 58.564-26.782 13.421-54.971 39.182-61.255 55.978-1.8096 4.8366-3.2902 10.155-3.2902 11.818 0 6.0295-7.3921 7.805-31.537 7.5751-12.279-0.117-24.081-0.5079-26.228-0.8687zm59.326-153.66c6.3927-0.9843 13.708-3.5518 19.769-6.9382 7.2572-4.0549 11.477-5.3771 17.173-5.3815 13.068-0.01 20.622-7.3068 27.873-26.925 1.5076-4.0787 3.7275-7.4159 4.933-7.4159s4.9461 1.4052 8.3124 3.1225c18.243 9.3071 39.341-1.8718 51.388-27.229 6.415-13.502 9.6025-16.817 26.673-27.74 4.7227-3.0219 10.083-7.1705 11.913-9.2191 5.2126-5.8375 28.305-57.43 29.619-66.174 0.64522-4.2933 1.2246-32.044 1.2874-61.668 0.14488-68.304 3.1423-92.066 12.604-99.918 3.9608-3.2872 6.3851-9.1116 9.2757-22.285 2.1842-9.9542 3.8132-13.464 9.0563-19.515 8.217-9.483 15.921-21.552 21.863-34.249 4.5709-9.7678 4.6803-10.528 3.5109-24.391-1.3965-16.557-1.5388-28.798-0.63812-54.901 0.59177-17.15 0.34168-19.353-2.9575-26.051-5.1132-10.38-13.85-17.568-32.205-26.492-13.826-6.7221-17.633-7.8813-28.332-8.6257-21.334-1.4845-28.444-7.4833-42.031-35.46-11.343-23.357-13.853-33.745-12.509-51.775l1.0539-14.138-7.3627-13.964c-4.0495-7.68-8.6222-16.422-10.162-19.428-1.9939-3.8927-3.5074-13.519-5.2622-33.469-2.6033-29.595-4.049-34.394-10.877-36.108-2.0995-0.52695-5.7694 0.12989-8.4389 1.5103-4.2107 2.1775-5.3256 2.1912-10.266 0.12709-11.941-4.9892-16.639-2.2322-18.363 10.776-0.58205 4.3916-0.71861-2.9049-0.30345-16.214 0.41514-13.309 1.4029-29.762 2.195-36.562 1.6369-14.051 0.27699-21.318-5.7867-30.924-2.1379-3.3866-4.478-9.786-5.2003-14.221-1.7276-10.608-5.4392-19.712-13.471-33.043-3.6214-6.0107-7.6888-14.793-9.0387-19.515-3.774-13.204-7.1944-40.981-7.1947-58.427-1.5e-4 -8.6519-1.054-21.237-2.3418-27.968-2.9138-15.227-2.9034-28.69 0.0315-40.845 3.7764-15.64 3.0373-30.553-2.1149-42.672-2.434-5.7253-6.3868-15.175-8.7839-20.998-6.1359-14.907-12.543-17.771-18.222-8.1458-4.7747 8.0924-8.4563 7.2356-19.777-4.603-9.168-9.5874-15.893-13.316-24.066-13.342-4.8002-0.0156-17.537 4.9141-21.045 8.1456-4.5679 4.2077-8.3734 3.1527-27.798-7.7066-21.942-12.267-43.372-27.301-56.431-39.589-14.241-13.401-17.67-14.257-30.254-7.5492-11.5 6.1294-16.002 11.207-19.553 22.053-4.0323 12.317-9.2332 21.916-16.295 30.075-14.717 17.004-31.248 45.879-31.248 54.582 0 6.8697-14.143 37.096-21.59 46.144-8.4168 10.225-12.81 16.454-21.368 30.3-4.1972 6.7902-11.732 17.328-16.743 23.418-11.527 14.008-19.308 29.594-22.417 44.907-2.2573 11.118-2.2343 12.686 0.31975 21.857 1.5701 5.6381 3.1306 18.291 3.6344 29.469 0.6351 14.091 1.5821 20.664 3.3739 23.418 5.8965 9.0647 9.3334 22.355 10.821 41.842 1.7285 22.645 4.192 32.369 11.643 45.957 6.2116 11.327 7.5838 16.828 10.873 43.586 2.0092 16.347 2.1065 21.763 0.55363 30.818-1.4688 8.5655-1.4705 13.846-8e-3 23.963 1.032 7.1374 1.8812 18.561 1.8872 25.386 6e-3 6.973 1.374 18.094 3.1224 25.388 4.0487 16.888 3.9274 22.04-0.89176 37.876-4.3926 14.435-4.3731 22.104 0.0953 37.354 1.863 6.3584 2.2651 11.828 1.5494 21.077-1.4038 18.14 4.323 62.676 9.5272 74.092 5.6114 12.31 10.707 18.289 20.105 23.593 7.6116 4.2958 8.3811 5.2501 9.329 11.571 0.56821 3.789 3.1392 11.104 5.7134 16.255 4.5877 9.1809 7.6774 12.403 21.561 22.484 8.1569 5.9228 10.149 11.042 12.407 31.891 1.2606 11.638 2.6264 16.424 7.1279 24.98 4.8412 9.2011 6.6788 11.163 14.07 15.021 12.846 6.7052 22.719 18.234 32.758 38.252 7.3929 14.741 19.535 33.813 47.03 73.872 2.7464 4.0014 5.4693 9.9731 6.0508 13.27 2.1114 11.973 6.0164 21.132 11.916 27.948 5.5556 6.419 9.2542 14.885 9.2755 21.232 5e-3 1.4262 1.4241 7.0466 3.1541 12.49s5.892 23.344 9.2489 39.78c6.3373 31.028 9.2463 39.046 16.736 46.127 10.253 9.6944 17.746 10.579 48.931 5.7774zm94.279-881.72c4.5576-5.0362 4.9142-13.262 0.90206-20.812-8.302-15.621-7.9899-14.355-5.161-20.933 3.5656-8.291 3.4958-24.741-0.1352-31.826-4.5621-8.9023-13.407-17.173-18.364-17.173-5.2204 0-7.7143 4.9697-11.366 22.65-2.8674 13.882-2.954 24.565-0.26023 32.099 2.4773 6.9286 21.947 36.752 24.717 37.862 4.0084 1.6056 7.0588 1.0168 9.6679-1.8663z" fill="#b6f0ff" stroke="#b6f0ff" stroke-width="10.621" style="paint-order:markers stroke fill"/>
  <path transform="scale(.26458)" d="m640.43 493.68c-10.547-15.924-12.128-22.835-8.9817-39.278 1.3034-6.8122 2.9946-13.011 3.7582-13.774 0.8104-0.81039 2.8716 0.69459 4.9512 3.615 4.7104 6.6152 5.7249 17.857 2.4727 27.402-3.4896 10.242-3.2268 13.029 2.2019 23.349 7.0614 13.424 4.9402 12.791-4.4023-1.3137z" fill="#7abb7a" stroke="#7abb7a" stroke-width="10.621" style="paint-order:markers stroke fill"/>
 </g>
 <g transform="translate(-45.397 -39.316)" fill="none" stroke="#000" stroke-linecap="round" stroke-linejoin="round">
  <path d="m67.641 40.068c-2.5637 3.7346-4.6726 7.8204-7.5402 11.279-3.2673 3.941-6.6964 7.9205-8.5472 12.766m88.479-1.8423c-4.6758 1.352-9.3231-1.6282-14.075-1.0813-3.5187-0.96858-6.3468-4.2718-10.245-3.317-4.0211-0.13034-7.8346-1.558-11.775-2.2092-4.9832 1.5688-9.8723 0.27355-14.228-2.0498-4.84-0.08328-7.6997-3.7454-11.44-6.004-2.0707-1.2505-4.948-4.0864-5.3648-0.13041-2.0804 3.6975-3.8507-1.0918-2.7968-3.3099 0.05534-1.7031-0.74362-3.5312-2.4672-4.1011m124.23 96.246c0.72766-5.0759 2.2986-10.769 0.19193-15.417-2.2052-4.8653-0.0816-9.5764 2.4281-13.613 3.0167-4.8523-2.3917-6.83-5.4905-9.5834-1.2931-1.1489-4.247-6.1768-4.8068-2.2044 0.75606 2.1171 1.4132 4.8372-2.0368 4.2281-3.9015-0.68871-4.8954-5.9109-7.2702-8.5613-1.8795-4.8705-2.02-10.198-1.4038-15.382 0.59403-4.9975-5.215-3.2894-7.9104-6.3648-3.5791-4.0835-9.6121 0.19371-13.1-3.728-2.9418-3.3073-6.9179-2.609-10.73-2.4264-0.63865-0.1904-1.2152-0.55288-1.712-0.9914m104.3 185.37c-2.3155-4.9074 1.974-10.814-1.8574-15.332-2.9689-3.5008-2.2268-8.4419 0.72569-12.458 2.4031-3.2688-0.63134-8.8216 4.0108-10.702 0.26078-4.7076-5.7384-6.2285-8.3464-9.4008-2.6934-3.2762-6.0342-6.2709-10.264-7.2466-3.0639 1.2115 0.0404 8.8558-4.8364 8.9165-2.8219 0.0352-1.2796 5.1875-4.9045 3.7652-4.0703 2.6572-1.3137 7.4767-3.6828 11.071-4.3295 2.6048-9.3661-1.004-12.481-3.9066-3.4426-3.2084-3.2132-8.5614-4.4137-12.851 0.45411-5.0576-1.6734-10.041-1.1488-14.848 2.4692-3.5115 4.1611-7.454 1.6816-11.845-2.311-4.0922-3.7878-8.5295-5.4893-12.917-1.5373-3.9642-2.094-8.2648-1.318-12.458-0.56256-3.0889-1.2943-5.1537-0.29089-8.8049 0.20516-0.74655 0.3036-1.5386 0.15397-2.3056m-91.702 251.36c2.266 4.0864 4.4448 9.0007 9.2083 10.635 3.3678 4.1819 7.7252 7.4572 12.381 9.9594 5.7828 3.1081 12.518 4.1956 18.95 4.0491 2.7459-0.0625 6.7813 0.52122 8.3399-2.1537 0.43381-4.353 2.8497-7.4469 6.0388-10.424 3.0921-2.8862 6.2352-5.6734 10.239-7.358 6.2825-2.6437 11.166-7.6824 14.558-13.594 2.247-3.9147 5.2326-7.1872 7.3282-11.494 2.4369-5.0089 7.0246-8.6655 11.4-11.934 3.7525-2.8032 5.8235-7.5102 10.452-9.119 4.9106-1.7068 2.0441-7.6835 5.6797-10.612 2.0722-3.4893 6.1719-6.3175 3.8477-10.99-2.3765-4.7772 3.674-9.3224 1.0024-13.688-2.4141-3.9451 4.5321-6.4207 2.5614-10.789 0.41351-4.377 1.7823-8.5781 2.6704-12.866 2.8909-4.2568 5.4616-8.9323 8.9429-12.618 3.9533-4.1853 6.4042-9.3916 10.344-13.681 1.0834-1.1796 4.9665-5.4191 3.3317-5.5794-4.2938 1.1125-6.2735 7.2279-10.885 6.7958-3.4124-2.192-2.8336-8.2458 1.2858-9.559 3.0561-0.97418 7.0363 3.603 6.8227-2.2409-0.034-0.93142-0.20596-1.8499-0.33629-2.7706m-189.42 51.46c-0.12957 5.1454 3.8959 8.3511 5.8556 13.008 2.0557 4.8854 5.4825 9.3521 9.3702 12.798 3.634 3.2208 7.4108 6.632 9.4044 11.021 2.0624 4.5403 5.7396 7.9683 7.8548 12.461 2.2223 4.7201 4.2943 9.9078 4.1512 15.102-0.14244 5.172 4.4847 9.2439 4.2498 14.567 1.1124 3.3321 1.907 6.9637 4.3719 9.6161m-45.842-99.014c-0.64125 3.5245 2.0854 6.9753 0.58418 10.442m-8.2351-32.045c0.2999 2.1648 0.54911 9.5587 3.72 6.372 0.80466-3.6151 6.5989-2.5337 4.4823 1.2946-0.17098 4.6413-1.7018 9.31-0.55132 13.936m-5.933-124.9c1.6514 5.6964 7.1112 9.9984 6.8799 16.288-0.17621 4.7916-1.7918 8.991-2.6169 13.834-0.64933 3.8114 2.5922 7.9526-1.4681 10.677 0.30138 4.6889 1.0423 9.648 2.0451 14.399 1.0269 4.8655 0.04941 9.3176-0.69999 14.443-0.68809 4.7063-3.9144 9.2035-3.1237 13.811 0.68683 4.0026 0.0042 7.8454-2.1248 11.226-0.60098 2.8428 0.31173 5.8248-0.60941 8.6223m-0.52755-108.01c0.28215 1.7663 1.6124 3.0863 2.2455 4.71m0.23729-36.694c-2.3815 5.3532-1.1274 11.212-2.1936 16.867-0.91733 4.8654 1.2544 9.8322 0.0405 14.612 0 0-0.32964 0.50433-0.32964 0.50433m5.4036-94.928c4.3922 1.9277 10.371 0.67301 13.128 5.5655 3.8415 2.2142 5.2646 6.1976 7.4713 9.9075 2.5756 4.33-2.5563 7.0783-4.7812 10.095-2.5612 3.4723-4.2776 7.0111-3.8744 11.745 0.38876 4.5654-6.0053 4.7857-7.0209 8.8848-2.5426 3.742-4.4369 8.0466-5.4085 12.497-0.35009 1.6036-0.87071 3.4155-2.4356 4.2499" stroke-width="1.505"/>
  <path d="m167.4 114.11c-1.9774 5.1783-3.5436 12.161 0.21124 16.166 1.5785 1.6836 4.0116 8.0892 5.3384 5.5667 2.0095-3.8204-3.7052-6.0563-1.901-9.8373 1.5278-3.2018 1.4713-7.2961-1.0798-9.9021-0.73387-0.74969-1.4286-1.887-2.5689-1.9934zm-36.763-33.666c-3.9354 0.18615-6.4716-2.3454-10.181-4.1687-3.4885-1.7149-6.4363-4.3765-9.7552-6.391-2.7269-1.6552-4.2215-5.2062-7.4305-5.9633m51.996 61.083c-0.86944-3.7357 0.0501-6.8805-0.54519-11.191-0.53866-3.9009-1.9426-7.908-0.99292-11.73 1.0399-4.1849 2.2141-8.7971 0.0579-12.684-1.3652-2.4608-3.4796-11.46-5.0098-7.6328-1.8532 4.6353-5.9108 0.74395-7.5049-1.4963-2.0695-2.9084-5.5467-3.5094-9.0745-1.4259-0.64387 0.38027-1.3254 0.8461-1.5601 1.5997m32.323 69.603c-0.0443-3.9765-1.6251-7.6797-3.959-10.986-2.7362-3.876-3.0878-8.7411-3.6986-13.297l-0.0215-0.37944-0.0144-0.38009m28.657 74.973c0.0891-4.2646-3.426-7.5816-4.9655-11.315-1.3132-3.1849-0.37788-5.8558-1.1748-9.4581-0.57418-2.5955 0.322-10.127-3.7522-7.1474-2.157 1.5775-4.627-1.8941-5.742-0.6131-1.8222 2.0933 1.6096 10.377-1.6536 7.2585-3.2543-3.1096-1.4123-7.8006-1.6045-11.7-0.16818-3.4105 0.54735-6.7302 0.80647-10.183 0.19386-2.5828-1.4906-4.7694-2.8773-6.7729m37.268 166.79c-0.67343-3.8454-0.38369-7.2697-0.305-11.343 0.0847-4.3821-0.64859-8.7357 0.46616-13.127 0.99222-3.9085 0.0218-8.6629 3.1877-11.598 3.1333-2.9052 1.3666-7.7008 4.4743-10.762 2.8358-2.7933 4.7687-6.5388 6.572-10.153 1.7951-3.598-0.39891-7.477-0.31697-11.209 0.0848-3.8634 0.88673-6.9059 0.68296-11.188-0.2134-4.4846-3.3216-6.962-6.8224-8.8182-2.969-1.5742-6.2513-3.5066-9.7596-3.0967-3.2144 0.37557-7.1402-2.2657-8.7978-5.0514-1.868-3.1391-3.6983-6.3998-4.8674-9.8704-1.0209-3.0307-1.8419-6.358-1.333-9.5201l0.22471-0.57556 0.28973-0.54916m9.5867 138.73c1.6694-3.4839 3.0954-6.9526 4.8904-10.442 1.8336-3.5644 1.5784-7.587 1.8276-11.428m-27.018 41.367c4.3652-0.14761 7.6124-4.268 8.8375-7.9038 1.2459-3.6975 4.5483-5.5795 7.7694-7.5098 1.5946-0.95556 3.0588-2.2886 3.6931-4.083m-35.301 27.013c4.0185 0.29017 5.3069-3.1 6.7439-7.3806 1.3774-4.1032 5.031-0.15127 7.4222 0.14332 0 0 0.42179-0.0955 0.42179-0.0955l0.41271-0.18368m-42.754-11.459c1.4 4.3523 1.9613 8.9308 2.969 13.373m-5.8347-22.951c2.17 2.7456 1.4184 6.5438 2.8657 9.5781m-8.7518-21.764c2.9522 3.1029 1.4874 7.9542 4.788 11.143 0.36311 0.35078 0.73496 0.69235 1.0982 1.043m-29.122-42.908c3.6486 1.7013 6.9585 4.0698 9.2132 7.9142 2.0943 3.5709 3.3116 7.6459 5.8517 10.913 2.77 3.5632 4.8316 7.5913 7.6576 11.111 0 0 0.26121 0.38848 0.26121 0.38848s0.25177 0.39503 0.25177 0.39503m-37.125-60.205c0.24771 4.4311 2.3744 9.0499 6.4052 11.057 3.6026 1.794 4.3838 5.6413 4.282 9.4667-0.0872 3.2752 1.5984 6.3454 3.2024 8.9592m-25.869-112.72c0.22692 3.9822 1.5555 8.1249 0.43134 11.961-1.1745 4.0078 1.1521 7.936 0.58613 12.081-0.54378 3.9825 1.1463 7.3138 1.6932 11.259 0.6272 4.5244-3.4823 9.0811-1.7786 13.217 1.0559 2.563 1.4986 5.3367 1.1462 8.136-0.62145 4.9359 0.68626 9.8072 1.1093 14.704 0.25972 3.0068 1.433 5.6684 3.3969 8.1231 1.4413 1.8015 3.7312 2.2919 5.3947 3.7536m-0.41308-171.12c-2.4186 3.5695-3.1619 8.1344-6.0674 11.292-2.8276 3.0729-4.7716 6.6682-6.9646 10.163-2.1544 3.4337-5.2379 5.9713-7.042 9.7941-1.8072 3.8294-3.2987 8.406-1.5087 12.341 1.7981 3.9526-0.64402 8.7598 1.5362 12.403 1.9687 3.2897 2.7402 7.0515 2.8787 10.938 0.14222 3.9886 0.43333 8.4748 2.749 11.673 2.03 2.8033 2.2403 6.0462 2.8527 9.278m30.671-117.62c-3.005 1.0688-6.2056 3.1109-6.8509 6.0814-0.72438 3.3346-2.4298 6.4137-4.7593 8.8351-2.4566 2.5537-4.0813 5.637-5.8544 8.6617-1.0543 1.7985-2.6051 4.0089-1.6401 6.1631m57.521 276.17c3.6492-0.76243 7.9124-0.26369 10.962-2.1119 1.6814-1.0191 3.4485-2.4768 5.5612-1.9931m-24.784-5.6021c0.2858 3.941 2.037 7.928 6.0479 9.5325 0.69597 0.2784 1.484 0.39135 2.2136 0.1746" stroke-width="2.2"/>
 </g>
</svg>
